<svg width="512" height="512" viewBox="0 0 512 512" fill="none" xmlns="http://www.w3.org/2000/svg">
<path d="M352 96H416C433.7 96 448 110.3 448 128V384C448 401.7 433.7 416 416 416H352C334.3 416 320 430.3 320 448C320 465.7 334.3 480 352 480H416C469 480 512 437 512 384V128C512 75 469 32 416 32H352C334.3 32 320 46.3 320 64C320 81.7 334.3 96 352 96ZM344.5 273.4C349.3 268.9 352 262.6 352 256C352 249.4 349.3 243.1 344.5 238.6L200.5 102.6C193.5 96 183.3 94.2 174.5 98C165.7 101.8 160 110.5 160 120V192H32C14.3 192 0 206.3 0 224V288C0 305.7 14.3 320 32 320H160V392C160 401.6 165.7 410.2 174.5 414C183.3 417.8 193.5 416 200.5 409.4L344.5 273.4Z" fill="#0042C4"/>
</svg>
