<svg width="406" height="383" viewBox="0 0 406 383" fill="none" xmlns="http://www.w3.org/2000/svg">
<path fill-rule="evenodd" clip-rule="evenodd" d="M0 19.1404C0 8.56955 9.08871 0 20.3 0H60.9C71.5075 0 80.3266 7.70039 81.14 17.6724L84.383 57.4213H385.7C391.473 57.4213 396.974 59.7398 400.825 63.7966C404.676 67.8534 406.513 73.2644 405.876 78.6754L389.309 219.254C386.065 246.791 362.43 268.215 333.121 270.188L122.922 284.344C89.5032 286.595 60.4324 262.97 57.8629 231.475L45.3443 78.0298L42.1016 38.2809H20.3C9.08871 38.2809 0 29.7113 0 19.1404ZM192.85 153.123C181.638 153.123 172.55 161.693 172.55 172.264C172.55 182.835 181.638 191.404 192.85 191.404H253.75C264.961 191.404 274.05 182.835 274.05 172.264C274.05 161.693 264.961 153.123 253.75 153.123H192.85ZM284.2 354.098C284.2 338.242 297.833 325.387 314.65 325.387H314.853C331.669 325.387 345.303 338.242 345.303 354.098V354.289C345.303 370.145 331.669 383 314.853 383H314.65C297.833 383 284.2 370.145 284.2 354.289V354.098ZM131.95 325.387C115.133 325.387 101.5 338.242 101.5 354.098V354.289C101.5 370.145 115.133 383 131.95 383H132.153C148.97 383 162.603 370.145 162.603 354.289V354.098C162.603 338.242 148.97 325.387 132.153 325.387H131.95Z" fill="#0042C4"/>
</svg>
