<svg width="340" height="338" viewBox="0 0 340 338" fill="none" xmlns="http://www.w3.org/2000/svg">
<path fill-rule="evenodd" clip-rule="evenodd" d="M0 18.6005C0 8.3278 8.37707 0 18.7105 0H152.895C167.781 0 182.059 5.87905 192.585 16.3438L323.559 146.547C345.48 168.34 345.48 203.669 323.559 225.462L226.796 321.656C204.875 343.448 169.336 343.448 147.415 321.656L16.4406 191.453C5.91383 180.988 0 166.794 0 151.995V18.6005ZM112.263 83.702C96.7627 83.702 84.1973 96.1936 84.1973 111.603V111.789C84.1973 127.198 96.7627 139.689 112.263 139.689H112.45C127.951 139.689 140.516 127.198 140.516 111.789V111.603C140.516 96.1936 127.951 83.702 112.45 83.702H112.263Z" fill="#0042C4"/>
</svg>
