<svg width="342" height="374" viewBox="0 0 372 374" fill="none" xmlns="http://www.w3.org/2000/svg">
<path fill-rule="evenodd" clip-rule="evenodd" d="M220.401 18.1026C194.523 -5.91928 147.563 -5.91928 121.686 18.1026L120.776 18.9474C116.276 23.1242 109.509 25.3381 102.588 24.8977L101.188 24.8087C61.385 22.2758 28.1794 48.5037 31.3861 79.9429L31.4988 81.0485C32.0564 86.515 29.2534 91.86 23.9654 95.414L22.8958 96.1329C-7.51703 116.573 -7.51703 153.664 22.8958 174.104L23.9654 174.824C29.2534 178.376 32.0564 183.722 31.4988 189.189L31.3861 190.295C28.6371 217.246 52.6472 240.368 84.6336 244.823V356.937C84.6336 363.23 89.0185 369.012 96.0428 371.981C103.067 374.95 111.59 374.624 118.219 371.135L171.043 343.319L223.868 371.135C230.498 374.624 239.02 374.95 246.045 371.981C253.068 369.012 257.453 363.23 257.453 356.937V244.823C289.44 240.368 313.449 217.246 310.701 190.295L310.589 189.189C310.032 183.722 312.833 178.376 318.122 174.824L319.191 174.104C349.603 153.664 349.603 116.573 319.191 96.1329L318.122 95.414C312.833 91.86 310.032 86.515 310.589 81.0485L310.701 79.9429C313.907 48.5037 280.702 22.2758 240.899 24.8087L239.499 24.8977C232.578 25.3381 225.81 23.124 221.312 18.9474L220.401 18.1026ZM127.838 325.055V257.129C152.322 274.492 189.764 274.492 214.248 257.129V325.055L183.026 308.615C175.77 304.792 166.317 304.792 159.06 308.615L127.838 325.055ZM229.523 130.121C237.959 123.457 237.959 112.654 229.523 105.99C221.088 99.3266 207.409 99.3266 198.973 105.99L149.441 145.114L143.113 140.116C134.678 133.452 120.999 133.452 112.563 140.116C104.127 146.78 104.127 157.583 112.563 164.247L134.166 181.31C142.601 187.973 156.28 187.973 164.716 181.31L229.523 130.121Z" fill="#0042C4"/>
</svg>
